<?xml version="1.0" encoding="UTF-8"?>
<svg width="20px" height="20px" viewBox="0 0 20 20" version="1.1" xmlns="http://www.w3.org/2000/svg" xmlns:xlink="http://www.w3.org/1999/xlink">
    <!-- Generator: sketchtool 59.1 (101010) - https://sketch.com -->
    <title>EC4060B6-54BC-4D08-BD9C-3DB902813D60</title>
    <desc>Created with sketchtool.</desc>
    <g id="Web-Design-Copy" stroke="none" stroke-width="1" fill="none" fill-rule="evenodd">
        <g id="New-Design" transform="translate(-1171.000000, -1063.000000)">
            <g id="Group-9" transform="translate(1135.000000, 1061.000000)">
                <g id="Facebook" transform="translate(34.000000, 0.000000)">
                    <path d="M7.5,3 L16.504,3 C18.987,3 21,5.013 21,7.496 L21,16.505 C21,18.987 18.987,21 16.504,21 L7.496,21 C5.013,21 3,18.987 3,16.504 L3,7.5 C3,5.015 5.015,3 7.5,3 L7.5,3 Z" id="Path" stroke="#FFFFFF" stroke-linecap="round" stroke-linejoin="round"></path>
                    <line x1="12.9" y1="12" x2="12.9" y2="21" id="Path" stroke="#FFFFFF" stroke-linecap="round" stroke-linejoin="round"></line>
                    <g id="Group" stroke-linecap="round" stroke-linejoin="round" transform="translate(11.000000, 8.000000)" stroke="#FFFFFF">
                        <line x1="0.1" y1="4.9" x2="5.5" y2="4.9" id="Path"></line>
                        <path d="M1.9,4 L1.9,3.055 C1.9,1.589 3.089,0.4 4.555,0.4 L5.5,0.4" id="Path"></path>
                    </g>
                    <polygon id="Path" transform="translate(12.000000, 12.000000) rotate(-90.000000) translate(-12.000000, -12.000000) " points="0 0 24 0 24 24 0 24"></polygon>
                </g>
            </g>
        </g>
    </g>
</svg>