<?xml version="1.0" encoding="UTF-8"?>
<svg width="20px" height="20px" viewBox="0 0 20 20" version="1.1" xmlns="http://www.w3.org/2000/svg" xmlns:xlink="http://www.w3.org/1999/xlink">
    <!-- Generator: sketchtool 59.1 (101010) - https://sketch.com -->
    <title>DB2BD94A-DA30-40C3-BB8D-4127852205A0</title>
    <desc>Created with sketchtool.</desc>
    <g id="Web-Design-Copy" stroke="none" stroke-width="1" fill="none" fill-rule="evenodd">
        <g id="New-Design" transform="translate(-1205.000000, -1063.000000)">
            <g id="Group-9" transform="translate(1135.000000, 1061.000000)">
                <g id="Instagram" transform="translate(68.000000, 0.000000)">
                    <path d="M7.496,3 L16.505,3 C18.987,3 21,5.012 21,7.496 L21,16.505 C21,18.987 18.988,21 16.504,21 L7.496,21 C5.013,21 3,18.988 3,16.504 L3,7.496 C3,5.013 5.012,3 7.496,3 L7.496,3 Z M8.4,12 C8.4,10.012 10.012,8.4 12,8.4 C13.988,8.4 15.6,10.012 15.6,12 C15.6,13.988 13.988,15.6 12,15.6 C10.012,15.6 8.4,13.988 8.4,12 Z" id="Shape" stroke="#FFFFFF" stroke-linecap="round" stroke-linejoin="round"></path>
                    <path d="M16.949,6.713 C16.763,6.714 16.612,6.865 16.612,7.051 C16.612,7.237 16.764,7.388 16.95,7.388 C17.136,7.388 17.287,7.237 17.287,7.051 C17.288,6.864 17.136,6.713 16.949,6.713" id="Path" stroke="#FFFFFF" stroke-linecap="round" stroke-linejoin="round"></path>
                    <polygon id="Path" transform="translate(12.000000, 12.000000) rotate(-90.000000) translate(-12.000000, -12.000000) " points="0 0 24 0 24 24 0 24"></polygon>
                </g>
            </g>
        </g>
    </g>
</svg>