<?xml version="1.0" encoding="UTF-8"?>
<svg width="20px" height="20px" viewBox="0 0 20 20" version="1.1" xmlns="http://www.w3.org/2000/svg" xmlns:xlink="http://www.w3.org/1999/xlink">
    <!-- Generator: sketchtool 59.1 (101010) - https://sketch.com -->
    <title>95876B0D-8AF0-4947-ADAA-8658C1D1CB21</title>
    <desc>Created with sketchtool.</desc>
    <g id="Web-Design-Copy" stroke="none" stroke-width="1" fill="none" fill-rule="evenodd">
        <g id="New-Design" transform="translate(-1137.000000, -1063.000000)">
            <g id="Group-9" transform="translate(1135.000000, 1061.000000)">
                <g id="Group-8">
                    <polygon id="Path" transform="translate(12.000000, 12.000000) rotate(-90.000000) translate(-12.000000, -12.000000) " points="0 0 24 0 24 24 0 24"></polygon>
                    <g id="Twitter" transform="translate(6.000000, 6.000000)">
                        <path d="M10.2,4.84033613 C10.2,8.01680672 8.31428571,10.2857143 5.01428571,10.2857143 C3.12857143,10.2857143 2.37271429,9.33831933 1.71428571,8.47058824 M1.71428571,8.47058824 C1.72947619,8.46806723 3.12857143,8.01680672 3.12857143,8.01680672 C1.554,6.48453782 1.43457143,4.21512605 2.65714286,2.57142857 C3.237,3.60957983 4.31971429,4.56756303 5.48571429,4.84033613 C5.5307619,3.52941176 6.4542381,2.57142857 7.84285714,2.57142857 C8.78833333,2.57142857 9.34461905,2.91831933 9.72857143,3.4789916 L11.1428571,3.4789916 L10.2,4.84033613" id="Shape" stroke="#FFFFFF" stroke-linecap="round" stroke-linejoin="round"></path>
                        <polygon id="Path" transform="translate(6.000000, 6.000000) rotate(-90.000000) translate(-6.000000, -6.000000) " points="-1.42793555e-11 -4.23303485e-15 12 -4.23303485e-15 12 12 -1.42793555e-11 12"></polygon>
                    </g>
                    <path d="M7.5,3 L16.504,3 C18.987,3 21,5.013 21,7.496 L21,16.505 C21,18.987 18.987,21 16.504,21 L7.496,21 C5.013,21 3,18.987 3,16.504 L3,7.5 C3,5.015 5.015,3 7.5,3 L7.5,3 Z" id="Path" stroke="#FFFFFF" stroke-linecap="round" stroke-linejoin="round"></path>
                </g>
            </g>
        </g>
    </g>
</svg>